#Model.obj

v 0.01570538 0.4997533 -0.05
v 0.03141851 0.9997533 -0.05
v -0.01570538 0.4997533 -0.05
v -0.03141851 0.9997533 -0.05
v 0.01570538 0.4997533 0.05
v -0.01570538 0.4997533 0.05
v 0.03141851 0.9997533 0.05
v -0.03141851 0.9997533 0.05
v -0.03141851 0.9997533 0.05
v -0.03141851 0.9997533 -0.05
v 0.03141851 0.9997533 0.05
v 0.03141851 0.9997533 -0.05
v 0.01570538 0.4997533 0.05
v 0.03141851 0.9997533 0.05
v 0.01570538 0.4997533 -0.05
v 0.03141851 0.9997533 -0.05
v -0.01570538 0.4997533 -0.05
v -0.01570538 0.4997533 0.05
v 0.01570538 0.4997533 -0.05
v 0.01570538 0.4997533 0.05
v -0.03141851 0.9997533 0.05
v -0.01570538 0.4997533 0.05
v -0.03141851 0.9997533 -0.05
v -0.01570538 0.4997533 -0.05

vn 0 0 -1
vn 0 0 -1
vn 0 0 -1
vn 0 0 -1
vn 0 0 1
vn 0 0 1
vn 0 0 1
vn 0 0 1
vn 0 1 0
vn 0 1 0
vn 0 1 0
vn 0 1 0
vn 0.9995066 -0.03141076 0
vn 0.9995066 -0.03141076 0
vn 0.9995066 -0.03141076 0
vn 0.9995066 -0.03141076 0
vn 0 -1 0
vn 0 -1 0
vn 0 -1 0
vn 0 -1 0
vn -0.9995066 -0.03141076 0
vn -0.9995066 -0.03141076 0
vn -0.9995066 -0.03141076 0
vn -0.9995066 -0.03141076 0

vt -0.618322 19.67533
vt -1.236949 39.36037
vt 0.618322 19.67533
vt 1.236949 39.36037
vt 0.618322 19.67533
vt -0.618322 19.67533
vt 1.236949 39.36037
vt -1.236949 39.36037
vt -1.236949 39.36037
vt 1.236949 39.36037
vt 1.236949 39.36037
vt -1.236949 39.36037
vt 0.618322 19.67533
vt 1.236949 39.36037
vt -0.618322 19.67533
vt -1.236949 39.36037
vt 0.618322 19.67533
vt -0.618322 19.67533
vt -0.618322 19.67533
vt 0.618322 19.67533
vt -1.236949 39.36037
vt -0.618322 19.67533
vt 1.236949 39.36037
vt 0.618322 19.67533

g Model
usemtl Model
usemap Model
f 1/1/1 3/3/3 2/2/2
f 4/4/4 2/2/2 3/3/3
f 5/5/5 7/7/7 6/6/6
f 8/8/8 6/6/6 7/7/7
f 9/9/9 11/11/11 10/10/10
f 12/12/12 10/10/10 11/11/11
f 13/13/13 15/15/15 14/14/14
f 16/16/16 14/14/14 15/15/15
f 17/17/17 19/19/19 18/18/18
f 20/20/20 18/18/18 19/19/19
f 21/21/21 23/23/23 22/22/22
f 24/24/24 22/22/22 23/23/23
